<mxfile host="app.diagrams.net" agent="Mozilla/5.0 (Windows NT 10.0; Win64; x64) AppleWebKit/537.36 (KHTML, like Gecko) Chrome/130.0.0.0 YaBrowser/24.12.0.0 Safari/537.36" version="26.0.2">
  <diagram name="Страница — 1" id="uu47TBJx8UqLYTCDloq8">
    <mxGraphModel dx="1687" dy="2107" grid="1" gridSize="10" guides="1" tooltips="1" connect="1" arrows="1" fold="1" page="1" pageScale="1" pageWidth="827" pageHeight="1169" math="0" shadow="0">
      <root>
        <mxCell id="0" />
        <mxCell id="1" parent="0" />
        <mxCell id="mc9tPVq2KBVzuQS1Oa3w-12" style="edgeStyle=orthogonalEdgeStyle;rounded=0;orthogonalLoop=1;jettySize=auto;html=1;" edge="1" parent="1" source="mc9tPVq2KBVzuQS1Oa3w-1" target="mc9tPVq2KBVzuQS1Oa3w-8">
          <mxGeometry relative="1" as="geometry" />
        </mxCell>
        <mxCell id="mc9tPVq2KBVzuQS1Oa3w-13" style="edgeStyle=orthogonalEdgeStyle;rounded=0;orthogonalLoop=1;jettySize=auto;html=1;entryX=0;entryY=0.5;entryDx=0;entryDy=0;" edge="1" parent="1" source="mc9tPVq2KBVzuQS1Oa3w-1" target="mc9tPVq2KBVzuQS1Oa3w-10">
          <mxGeometry relative="1" as="geometry" />
        </mxCell>
        <mxCell id="mc9tPVq2KBVzuQS1Oa3w-1" value="Администратор" style="shape=umlActor;verticalLabelPosition=bottom;verticalAlign=top;html=1;outlineConnect=0;" vertex="1" parent="1">
          <mxGeometry x="80" y="110" width="30" height="60" as="geometry" />
        </mxCell>
        <mxCell id="mc9tPVq2KBVzuQS1Oa3w-15" style="edgeStyle=orthogonalEdgeStyle;rounded=0;orthogonalLoop=1;jettySize=auto;html=1;entryX=0;entryY=0.5;entryDx=0;entryDy=0;" edge="1" parent="1" source="mc9tPVq2KBVzuQS1Oa3w-2" target="mc9tPVq2KBVzuQS1Oa3w-11">
          <mxGeometry relative="1" as="geometry" />
        </mxCell>
        <mxCell id="mc9tPVq2KBVzuQS1Oa3w-16" style="edgeStyle=orthogonalEdgeStyle;rounded=0;orthogonalLoop=1;jettySize=auto;html=1;entryX=0;entryY=0.5;entryDx=0;entryDy=0;" edge="1" parent="1" source="mc9tPVq2KBVzuQS1Oa3w-2" target="mc9tPVq2KBVzuQS1Oa3w-14">
          <mxGeometry relative="1" as="geometry" />
        </mxCell>
        <mxCell id="mc9tPVq2KBVzuQS1Oa3w-2" value="Сотрудник склада" style="shape=umlActor;verticalLabelPosition=bottom;verticalAlign=top;html=1;outlineConnect=0;" vertex="1" parent="1">
          <mxGeometry x="80" y="240" width="30" height="60" as="geometry" />
        </mxCell>
        <mxCell id="mc9tPVq2KBVzuQS1Oa3w-19" style="edgeStyle=orthogonalEdgeStyle;rounded=0;orthogonalLoop=1;jettySize=auto;html=1;entryX=1;entryY=0.5;entryDx=0;entryDy=0;" edge="1" parent="1" source="mc9tPVq2KBVzuQS1Oa3w-3" target="mc9tPVq2KBVzuQS1Oa3w-17">
          <mxGeometry relative="1" as="geometry" />
        </mxCell>
        <mxCell id="mc9tPVq2KBVzuQS1Oa3w-3" value="Менеджер" style="shape=umlActor;verticalLabelPosition=bottom;verticalAlign=top;html=1;outlineConnect=0;" vertex="1" parent="1">
          <mxGeometry x="1050" y="110" width="30" height="60" as="geometry" />
        </mxCell>
        <mxCell id="mc9tPVq2KBVzuQS1Oa3w-22" style="edgeStyle=orthogonalEdgeStyle;rounded=0;orthogonalLoop=1;jettySize=auto;html=1;entryX=1;entryY=0.5;entryDx=0;entryDy=0;" edge="1" parent="1" source="mc9tPVq2KBVzuQS1Oa3w-4" target="mc9tPVq2KBVzuQS1Oa3w-21">
          <mxGeometry relative="1" as="geometry" />
        </mxCell>
        <mxCell id="mc9tPVq2KBVzuQS1Oa3w-4" value="Сотрудник технического обслуживания" style="shape=umlActor;verticalLabelPosition=bottom;verticalAlign=top;html=1;outlineConnect=0;" vertex="1" parent="1">
          <mxGeometry x="1050" y="420" width="30" height="60" as="geometry" />
        </mxCell>
        <mxCell id="mc9tPVq2KBVzuQS1Oa3w-24" style="edgeStyle=orthogonalEdgeStyle;rounded=0;orthogonalLoop=1;jettySize=auto;html=1;entryX=0;entryY=0.5;entryDx=0;entryDy=0;" edge="1" parent="1" source="mc9tPVq2KBVzuQS1Oa3w-8" target="mc9tPVq2KBVzuQS1Oa3w-23">
          <mxGeometry relative="1" as="geometry">
            <mxPoint x="334" y="30" as="targetPoint" />
          </mxGeometry>
        </mxCell>
        <mxCell id="mc9tPVq2KBVzuQS1Oa3w-26" value="" style="edgeStyle=orthogonalEdgeStyle;rounded=0;orthogonalLoop=1;jettySize=auto;html=1;" edge="1" parent="1" source="mc9tPVq2KBVzuQS1Oa3w-8" target="mc9tPVq2KBVzuQS1Oa3w-25">
          <mxGeometry relative="1" as="geometry" />
        </mxCell>
        <mxCell id="mc9tPVq2KBVzuQS1Oa3w-8" value="&#xa;Управляет пользователями, ролями и категориями.&#xa;&#xa;" style="ellipse;whiteSpace=wrap;html=1;" vertex="1" parent="1">
          <mxGeometry x="220" y="100" width="120" height="80" as="geometry" />
        </mxCell>
        <mxCell id="mc9tPVq2KBVzuQS1Oa3w-28" value="" style="edgeStyle=orthogonalEdgeStyle;rounded=0;orthogonalLoop=1;jettySize=auto;html=1;" edge="1" parent="1" source="mc9tPVq2KBVzuQS1Oa3w-10" target="mc9tPVq2KBVzuQS1Oa3w-27">
          <mxGeometry relative="1" as="geometry" />
        </mxCell>
        <mxCell id="mc9tPVq2KBVzuQS1Oa3w-10" value="Настраивает справочные данные (статусы, склады, поставщики и т. д.)." style="ellipse;whiteSpace=wrap;html=1;" vertex="1" parent="1">
          <mxGeometry x="220" y="200" width="120" height="80" as="geometry" />
        </mxCell>
        <mxCell id="mc9tPVq2KBVzuQS1Oa3w-30" value="" style="edgeStyle=orthogonalEdgeStyle;rounded=0;orthogonalLoop=1;jettySize=auto;html=1;" edge="1" parent="1" source="mc9tPVq2KBVzuQS1Oa3w-11" target="mc9tPVq2KBVzuQS1Oa3w-29">
          <mxGeometry relative="1" as="geometry" />
        </mxCell>
        <mxCell id="mc9tPVq2KBVzuQS1Oa3w-32" style="edgeStyle=orthogonalEdgeStyle;rounded=0;orthogonalLoop=1;jettySize=auto;html=1;entryX=0;entryY=0.5;entryDx=0;entryDy=0;" edge="1" parent="1" source="mc9tPVq2KBVzuQS1Oa3w-11" target="mc9tPVq2KBVzuQS1Oa3w-31">
          <mxGeometry relative="1" as="geometry" />
        </mxCell>
        <mxCell id="mc9tPVq2KBVzuQS1Oa3w-11" value="&#xa;Учет оборудования.&#xa;&#xa;" style="ellipse;whiteSpace=wrap;html=1;" vertex="1" parent="1">
          <mxGeometry x="220" y="290" width="120" height="80" as="geometry" />
        </mxCell>
        <mxCell id="mc9tPVq2KBVzuQS1Oa3w-34" value="" style="edgeStyle=orthogonalEdgeStyle;rounded=0;orthogonalLoop=1;jettySize=auto;html=1;" edge="1" parent="1" source="mc9tPVq2KBVzuQS1Oa3w-14" target="mc9tPVq2KBVzuQS1Oa3w-33">
          <mxGeometry relative="1" as="geometry" />
        </mxCell>
        <mxCell id="mc9tPVq2KBVzuQS1Oa3w-36" style="edgeStyle=orthogonalEdgeStyle;rounded=0;orthogonalLoop=1;jettySize=auto;html=1;entryX=0;entryY=0.5;entryDx=0;entryDy=0;" edge="1" parent="1" source="mc9tPVq2KBVzuQS1Oa3w-14" target="mc9tPVq2KBVzuQS1Oa3w-35">
          <mxGeometry relative="1" as="geometry" />
        </mxCell>
        <mxCell id="mc9tPVq2KBVzuQS1Oa3w-14" value="Перемещение оборудования между складами." style="ellipse;whiteSpace=wrap;html=1;" vertex="1" parent="1">
          <mxGeometry x="220" y="470" width="120" height="80" as="geometry" />
        </mxCell>
        <mxCell id="mc9tPVq2KBVzuQS1Oa3w-38" value="" style="edgeStyle=orthogonalEdgeStyle;rounded=0;orthogonalLoop=1;jettySize=auto;html=1;" edge="1" parent="1" source="mc9tPVq2KBVzuQS1Oa3w-17" target="mc9tPVq2KBVzuQS1Oa3w-37">
          <mxGeometry relative="1" as="geometry" />
        </mxCell>
        <mxCell id="mc9tPVq2KBVzuQS1Oa3w-40" style="edgeStyle=orthogonalEdgeStyle;rounded=0;orthogonalLoop=1;jettySize=auto;html=1;entryX=1;entryY=0.5;entryDx=0;entryDy=0;" edge="1" parent="1" source="mc9tPVq2KBVzuQS1Oa3w-17" target="mc9tPVq2KBVzuQS1Oa3w-39">
          <mxGeometry relative="1" as="geometry" />
        </mxCell>
        <mxCell id="mc9tPVq2KBVzuQS1Oa3w-42" style="edgeStyle=orthogonalEdgeStyle;rounded=0;orthogonalLoop=1;jettySize=auto;html=1;entryX=1;entryY=0.5;entryDx=0;entryDy=0;" edge="1" parent="1" source="mc9tPVq2KBVzuQS1Oa3w-17" target="mc9tPVq2KBVzuQS1Oa3w-41">
          <mxGeometry relative="1" as="geometry" />
        </mxCell>
        <mxCell id="mc9tPVq2KBVzuQS1Oa3w-17" value="Создание и управление заказами." style="ellipse;whiteSpace=wrap;html=1;" vertex="1" parent="1">
          <mxGeometry x="850" y="100" width="120" height="80" as="geometry" />
        </mxCell>
        <mxCell id="mc9tPVq2KBVzuQS1Oa3w-18" value="Анализ данных (отчеты по оборудованию, заказам, складам и т. д.)." style="ellipse;whiteSpace=wrap;html=1;" vertex="1" parent="1">
          <mxGeometry x="850" y="190" width="120" height="80" as="geometry" />
        </mxCell>
        <mxCell id="mc9tPVq2KBVzuQS1Oa3w-20" style="edgeStyle=orthogonalEdgeStyle;rounded=0;orthogonalLoop=1;jettySize=auto;html=1;entryX=1.004;entryY=0.559;entryDx=0;entryDy=0;entryPerimeter=0;" edge="1" parent="1" source="mc9tPVq2KBVzuQS1Oa3w-3" target="mc9tPVq2KBVzuQS1Oa3w-18">
          <mxGeometry relative="1" as="geometry" />
        </mxCell>
        <mxCell id="mc9tPVq2KBVzuQS1Oa3w-45" value="" style="edgeStyle=orthogonalEdgeStyle;rounded=0;orthogonalLoop=1;jettySize=auto;html=1;" edge="1" parent="1" source="mc9tPVq2KBVzuQS1Oa3w-21" target="mc9tPVq2KBVzuQS1Oa3w-44">
          <mxGeometry relative="1" as="geometry" />
        </mxCell>
        <mxCell id="mc9tPVq2KBVzuQS1Oa3w-48" style="edgeStyle=orthogonalEdgeStyle;rounded=0;orthogonalLoop=1;jettySize=auto;html=1;entryX=1;entryY=0.5;entryDx=0;entryDy=0;" edge="1" parent="1" source="mc9tPVq2KBVzuQS1Oa3w-21" target="mc9tPVq2KBVzuQS1Oa3w-46">
          <mxGeometry relative="1" as="geometry" />
        </mxCell>
        <mxCell id="mc9tPVq2KBVzuQS1Oa3w-21" value="&#xa;Регистрация и ведение данных о ремонте и техническом обслуживании оборудования.&#xa;&#xa;" style="ellipse;whiteSpace=wrap;html=1;" vertex="1" parent="1">
          <mxGeometry x="850" y="410" width="120" height="80" as="geometry" />
        </mxCell>
        <mxCell id="mc9tPVq2KBVzuQS1Oa3w-23" value="Добавление, редактирование, удаление пользователей." style="ellipse;whiteSpace=wrap;html=1;" vertex="1" parent="1">
          <mxGeometry x="380" y="-20" width="120" height="80" as="geometry" />
        </mxCell>
        <mxCell id="mc9tPVq2KBVzuQS1Oa3w-25" value="Назначение ролей." style="ellipse;whiteSpace=wrap;html=1;" vertex="1" parent="1">
          <mxGeometry x="380" y="100" width="120" height="80" as="geometry" />
        </mxCell>
        <mxCell id="mc9tPVq2KBVzuQS1Oa3w-27" value="Добавление/редактирование статусов, категорий, складов и поставщиков." style="ellipse;whiteSpace=wrap;html=1;" vertex="1" parent="1">
          <mxGeometry x="380" y="200" width="120" height="80" as="geometry" />
        </mxCell>
        <mxCell id="mc9tPVq2KBVzuQS1Oa3w-29" value="Добавление нового оборудования." style="ellipse;whiteSpace=wrap;html=1;" vertex="1" parent="1">
          <mxGeometry x="380" y="290" width="120" height="80" as="geometry" />
        </mxCell>
        <mxCell id="mc9tPVq2KBVzuQS1Oa3w-31" value="Обновление информации о состоянии оборудования." style="ellipse;whiteSpace=wrap;html=1;" vertex="1" parent="1">
          <mxGeometry x="380" y="380" width="120" height="80" as="geometry" />
        </mxCell>
        <mxCell id="mc9tPVq2KBVzuQS1Oa3w-33" value="Регистрация перемещений между складами." style="ellipse;whiteSpace=wrap;html=1;" vertex="1" parent="1">
          <mxGeometry x="380" y="470" width="120" height="80" as="geometry" />
        </mxCell>
        <mxCell id="mc9tPVq2KBVzuQS1Oa3w-35" value="Отслеживание истории перемещений." style="ellipse;whiteSpace=wrap;html=1;" vertex="1" parent="1">
          <mxGeometry x="380" y="560" width="120" height="80" as="geometry" />
        </mxCell>
        <mxCell id="mc9tPVq2KBVzuQS1Oa3w-37" value="Создание нового заказа." style="ellipse;whiteSpace=wrap;html=1;" vertex="1" parent="1">
          <mxGeometry x="650" y="100" width="120" height="80" as="geometry" />
        </mxCell>
        <mxCell id="mc9tPVq2KBVzuQS1Oa3w-39" value="Добавление оборудования в заказ." style="ellipse;whiteSpace=wrap;html=1;" vertex="1" parent="1">
          <mxGeometry x="650" y="190" width="120" height="80" as="geometry" />
        </mxCell>
        <mxCell id="mc9tPVq2KBVzuQS1Oa3w-41" value="Расчет итоговой стоимости." style="ellipse;whiteSpace=wrap;html=1;" vertex="1" parent="1">
          <mxGeometry x="650" y="280" width="120" height="80" as="geometry" />
        </mxCell>
        <mxCell id="mc9tPVq2KBVzuQS1Oa3w-44" value="Регистрация данных о ремонте." style="ellipse;whiteSpace=wrap;html=1;" vertex="1" parent="1">
          <mxGeometry x="650" y="470" width="120" height="80" as="geometry" />
        </mxCell>
        <mxCell id="mc9tPVq2KBVzuQS1Oa3w-46" value="Учет сроков обслуживания." style="ellipse;whiteSpace=wrap;html=1;" vertex="1" parent="1">
          <mxGeometry x="650" y="370" width="120" height="80" as="geometry" />
        </mxCell>
      </root>
    </mxGraphModel>
  </diagram>
</mxfile>
